<svg width="225" height="44" viewBox="0 0 225 44" fill="none" xmlns="http://www.w3.org/2000/svg">
<path d="M8.4 17.512H7.938V37H2.562V7.684H10.122L16.8 27.172H17.262V7.684H22.638V37H15.078L8.4 17.512ZM35.0536 37.504C31.1336 37.504 28.2356 36.174 26.3596 33.514C24.5116 30.854 23.5876 27.13 23.5876 22.342C23.5876 17.554 24.5116 13.83 26.3596 11.17C28.2356 8.51 31.1336 7.18 35.0536 7.18C38.9736 7.18 41.8576 8.51 43.7056 11.17C45.5816 13.83 46.5196 17.554 46.5196 22.342C46.5196 27.13 45.5816 30.854 43.7056 33.514C41.8576 36.174 38.9736 37.504 35.0536 37.504ZM35.0536 32.422C36.8456 32.422 38.0776 31.764 38.7496 30.448C39.4496 29.104 39.7996 27.242 39.7996 24.862V19.78C39.7996 17.428 39.4496 15.594 38.7496 14.278C38.0776 12.934 36.8456 12.262 35.0536 12.262C33.2616 12.262 32.0156 12.934 31.3156 14.278C30.6436 15.594 30.3076 17.428 30.3076 19.78V24.904C30.3076 27.256 30.6436 29.104 31.3156 30.448C32.0156 31.764 33.2616 32.422 35.0536 32.422ZM53.0552 37L45.2852 7.684H52.2992L55.7432 22.594L57.4652 31.036H57.8012L59.5652 22.594L63.0512 7.684H69.7292L61.9592 37H53.0552ZM79.9608 37.504C76.0408 37.504 73.1428 36.174 71.2668 33.514C69.4188 30.854 68.4948 27.13 68.4948 22.342C68.4948 17.554 69.4188 13.83 71.2668 11.17C73.1428 8.51 76.0408 7.18 79.9608 7.18C83.8808 7.18 86.7648 8.51 88.6128 11.17C90.4888 13.83 91.4268 17.554 91.4268 22.342C91.4268 27.13 90.4888 30.854 88.6128 33.514C86.7648 36.174 83.8808 37.504 79.9608 37.504ZM79.9608 32.422C81.7528 32.422 82.9848 31.764 83.6568 30.448C84.3568 29.104 84.7068 27.242 84.7068 24.862V19.78C84.7068 17.428 84.3568 15.594 83.6568 14.278C82.9848 12.934 81.7528 12.262 79.9608 12.262C78.1688 12.262 76.9228 12.934 76.2228 14.278C75.5508 15.594 75.2148 17.428 75.2148 19.78V24.904C75.2148 27.256 75.5508 29.104 76.2228 30.448C76.9228 31.764 78.1688 32.422 79.9608 32.422ZM101.952 37.504C99.4884 37.504 97.3464 37.098 95.5264 36.286C93.7064 35.474 92.2364 34.368 91.1164 32.968L94.7704 28.936C95.8344 30.112 96.9964 30.98 98.2564 31.54C99.5444 32.1 100.846 32.38 102.162 32.38C103.674 32.38 104.822 32.044 105.606 31.372C106.39 30.7 106.782 29.734 106.782 28.474C106.782 27.438 106.474 26.654 105.858 26.122C105.27 25.59 104.262 25.212 102.834 24.988L99.7684 24.484C97.1364 24.036 95.2324 23.07 94.0564 21.586C92.8804 20.074 92.2924 18.24 92.2924 16.084C92.2924 13.256 93.2164 11.072 95.0644 9.532C96.9124 7.964 99.5024 7.18 102.834 7.18C105.102 7.18 107.076 7.53 108.756 8.23C110.436 8.93 111.794 9.882 112.83 11.086L109.26 15.076C108.476 14.208 107.552 13.536 106.488 13.06C105.424 12.556 104.22 12.304 102.876 12.304C100.048 12.304 98.6344 13.466 98.6344 15.79C98.6344 16.798 98.9424 17.554 99.5584 18.058C100.202 18.562 101.238 18.94 102.666 19.192L105.732 19.738C108.112 20.158 109.946 21.054 111.234 22.426C112.522 23.798 113.166 25.646 113.166 27.97C113.166 29.342 112.928 30.616 112.452 31.792C111.976 32.94 111.262 33.948 110.31 34.816C109.358 35.656 108.182 36.314 106.782 36.79C105.41 37.266 103.8 37.504 101.952 37.504ZM115.628 37V7.684H134.36V12.85H121.928V19.57H133.94V24.736H121.928V31.834H134.36V37H115.628ZM136.486 37V7.684H142.828V31.834H155.428V37H136.486ZM168.809 37.504C164.889 37.504 161.991 36.174 160.115 33.514C158.267 30.854 157.343 27.13 157.343 22.342C157.343 17.554 158.267 13.83 160.115 11.17C161.991 8.51 164.889 7.18 168.809 7.18C172.729 7.18 175.613 8.51 177.461 11.17C179.337 13.83 180.275 17.554 180.275 22.342C180.275 27.13 179.337 30.854 177.461 33.514C175.613 36.174 172.729 37.504 168.809 37.504ZM168.809 32.422C170.601 32.422 171.833 31.764 172.505 30.448C173.205 29.104 173.555 27.242 173.555 24.862V19.78C173.555 17.428 173.205 15.594 172.505 14.278C171.833 12.934 170.601 12.262 168.809 12.262C167.017 12.262 165.771 12.934 165.071 14.278C164.399 15.594 164.063 17.428 164.063 19.78V24.904C164.063 27.256 164.399 29.104 165.071 30.448C165.771 31.764 167.017 32.422 168.809 32.422ZM186.601 37L178.831 7.684H185.845L189.289 22.594L191.011 31.036H191.347L193.111 22.594L196.597 7.684H203.275L195.505 37H186.601ZM215.438 37L213.59 29.944H205.568L203.762 37H197.378L205.316 7.684H214.22L222.158 37H215.438ZM209.768 13.774H209.432L206.576 24.862H212.624L209.768 13.774Z" fill="#03A5B0"/>
</svg>
